<?xml version="1.0" encoding="utf-8"?>
<!-- Generator: Adobe Illustrator 27.9.6, SVG Export Plug-In . SVG Version: 9.03 Build 54986)  -->
<svg version="1.1" id="Layer_1" xmlns="http://www.w3.org/2000/svg" xmlns:xlink="http://www.w3.org/1999/xlink" x="0px" y="0px"
	 viewBox="0 0 3613.2 898.7" style="enable-background:new 0 0 3613.2 898.7;" xml:space="preserve">
<style type="text/css">
	.st0{fill:#FFFFFF;}
	.st1{opacity:0.55;fill:#FFFFFF;enable-background:new    ;}
</style>
<g id="Group_8666" transform="translate(-2027.54 -309.957)">
	<path id="Path_4905" class="st0" d="M4482.7,604.5L4308,1052.6l-176-448.1h-137.3l244.6,579.2h124.8l244.7-579.2L4482.7,604.5z
		 M3791.2,604.5v305.8c0,109.8-53.6,173.5-147.3,173.5s-147.3-63.7-147.3-173.5V604.5h-122.3v310.8c0,172.3,103.6,280.8,269.6,280.8
		s269.6-108.5,269.6-280.8V604.5H3791.2z M2993.6,590.8c-45.8-0.1-91,10.2-132.1,30.2c-101.8,49.7-165.9,153.5-164.9,266.8
		c0,148.6,138.6,320.8,257.1,320.8c30-0.2,57.8-15.8,73.6-41.2c48.7-73.6,98.6-116,172.2-148.5c68.7-30,87.4-59.9,87.4-136
		C3286.9,718.1,3158.4,590.8,2993.6,590.8L2993.6,590.8z M3123.4,979c-49.9,31.2-76.1,57.4-96.1,98.6c-8.3,16.5-25.3,26.7-43.7,26.2
		c-79.9,0-171-104.9-171-197.2c0-103.6,76.1-181,179.7-181c98.3,0.4,177.6,80.3,177.3,178.6c0,0,0,0,0,0c0,0.8,0,1.6,0,2.4
		C3169.6,939,3158.4,957.7,3123.4,979L3123.4,979z M2332.1,590.8c-68.6-0.7-134.9,25.2-184.7,72.4l-1.2-353.2h-118.6v873.7h122.4
		V1125c50,45,114.9,69.9,182.2,69.9c164.8,0,289.6-131.1,289.6-302.1S2496.9,590.8,2332.1,590.8z M2322.1,1082.6
		c-99.9,0-174.8-81.1-174.8-189.7s74.9-189.7,174.8-189.7s174.8,81.1,174.8,189.7S2422,1082.6,2322.1,1082.6L2322.1,1082.6z
		 M5640.8,604.5h-177.2l-1.3-294.6h-118.6v294.6h-81.5v106.1h81.5v473.1h121.1l-1.2-473.1h177.2V604.5z"/>
	<path id="Path_5072" class="st1" d="M4979.7,703.4c-12.3-3.8-25.1-6.2-38-7.2C4954.6,697,4967.4,699.4,4979.7,703.4z"/>
	<g id="qDpOXt.tif" transform="translate(4643.737 594.107)">
		<g id="Group_8631">
			<path id="Path_5073" class="st0" d="M568.3,337.9H120.8c9,56.2,31.4,102.9,82.1,131.4c26.8,14.4,56.8,21.8,87.2,21.4
				c52.8,0.7,102.5-9.8,145-43.3c12.8-11.1,25.1-22.9,36.7-35.3l81.8,79.8c-16.3,19.7-35.3,37-56.3,51.6
				c-67.5,47.2-143,64.5-224.1,60c-65.7-2.3-128.5-27.6-177.5-71.4C40.5,482.3,11.2,418.7,3,345c-8.5-63.5,1.2-128.1,28.1-186.3
				C73.9,69.3,145.9,19.2,242.2,4.4c59.4-10.5,120.7-2,175.1,24.2c76.2,37.6,120.4,101.3,141.6,182.5
				C569.3,252.5,572.5,295.4,568.3,337.9z M123.2,239.8h320.4c-10.3-73.7-71.3-129.8-145.6-133.8
				C204.9,100.6,139.1,150.9,123.2,239.8L123.2,239.8z"/>
		</g>
	</g>
</g>
</svg>
